Patient4_TMGait_0pt2_03_left_19_EMG.mot
version=1
nRows=40
nColumns=33
inDegrees=no
endheader
time	1LAddLong	2LGlutMax	3LGlutMed	4LIliopsoas	5LSemiMemb	6LBicFemLong	7LRecFem	8LVastMed	9LVastLat	10LGasMed	11LTibAnt	12lTibPost	13LPeroneusLong	14LSol	15LExtDigLong	16LFlexDigLong	17RAddLong	18RGlutMax	19RGlutMed	20RIliopsoas	21RSemiMemb	22RBicFemLong	23RRecFem	24RVastMed	25RVastLat	26RGasMed	27RTibAnt	28RTibPost	29RPeroneusLong	30RSol	31RExtDigLong	32RFlexDigLong
39.66	0.007935	0.15381	0.018921	0.059967	0.000916	-0.024719	-0.015411	0.007019	0.007935	-0.006561	-0.19852	0.003662	0.061188	-0.063782	0.18982	0.001068	-0.089722	-0.011139	0.37216	0.046692	0.07309	-0.031433	0.31281	0.14908	0.028992	0.008545	-0.002594	0.10559	-0.16968	-0.20218	0.000305	-0.004272
39.661	0.005646	0.16861	0.033875	0.034332	0.005646	-0.011139	-0.013123	0.004272	0.007172	0.024872	-0.17212	-0.006866	-0.036926	-0.054626	0.078888	-0.005341	-0.071716	0.007019	0.1976	-0.057373	0.03479	-0.048676	0.18509	-0.046234	0.1683	0.013733	-0.031128	-0.16251	0.34088	-0.24902	-0.00473	-0.004883
39.662	0.000305	0.15015	-0.002441	0.027771	0.007935	-0.007019	-0.002594	0.013428	0.000153	0.010986	-0.15915	0.006714	-0.017242	-0.05127	-0.30563	0.000916	-0.048523	0.07782	0.43106	-0.12848	-0.01709	-0.059662	-0.063019	0.53299	0.5072	0.003357	0.007477	0.21942	0.15121	-0.2832	0.005951	-0.006561
39.663	0.002747	0.14694	-0.11704	0.003815	0.010681	-0.001526	0.012207	0.000916	-0.010529	0.003204	-0.070648	0.003052	-0.000916	-0.005341	-0.24597	-0.001831	-0.045624	0.14648	0.71411	-0.28656	-0.042572	-0.046387	-0.20309	0.59204	0.69687	0	0.013733	-0.093536	-0.069427	-0.32272	-0.000916	-0.006561
39.664	0.005798	0.14557	-0.070801	-0.037537	0.010071	0.010071	0.011597	-0.001678	-0.016937	0.000458	0.057373	-0.001221	-0.025635	-0.074005	-0.14221	-0.012665	-0.017548	0.1741	0.43854	-0.29221	-0.038757	-0.063934	-0.15945	0.13992	0.57571	0.016174	-0.011597	0.14618	0.069733	-0.22629	-0.002289	-0.007629
39.665	0.007935	0.12436	0.076752	-0.061798	0	0.033264	0.006104	0.005798	-0.011292	0.021362	-0.112	0.002136	-0.053101	-0.070801	0.005798	-0.015411	0.032959	0.090027	-0.52567	-0.032043	0.007782	-0.02655	-0.050201	-0.38132	0.27191	0.04776	-0.035095	0.042419	0.16586	-0.18234	-0.001831	-0.011597
39.666	0.012665	0.068817	0.006866	-0.007935	-0.016022	0.039368	0.02594	0.002136	-0.021057	-0.012665	-0.20172	0.008392	-0.008392	0.037842	0.039825	0.003052	0.077515	0.06424	-0.54153	0.18936	0.019531	0.001221	0.048676	-0.64987	0.005188	0.051727	-0.024719	-0.029602	0.090637	-0.039215	0.001831	-0.011292
39.667	0.010529	0.07309	0.023193	0.002747	-0.005798	0.037994	0.015564	-0.00061	-0.029449	-0.018463	-0.12192	0.007782	0.009308	0.1033	0.004425	-0.010834	0.06424	0.14893	0.67932	0.14236	-0.064087	-0.012054	0.55405	-0.952	-0.38193	0.041199	-0.018921	-0.01236	0.009308	-0.19913	0.000305	-0.011444
39.668	0.014191	0.064697	0.13046	-0.005341	-0.002899	0.025635	0.028229	-0.001984	-0.026245	-0.008698	0.09903	0.013428	0.017395	0.10651	-0.006256	-0.006409	-0.000458	0.14038	0.85312	0.061188	-0.12955	0.12833	0.63461	-1.0841	-0.85983	-0.020599	-0.054016	0.087738	0.10162	-0.33157	-0.000305	-0.002441
39.669	0.010681	0.023499	0.16815	0.026245	0.003052	0.019836	0.036469	-0.005646	-0.033264	-0.003662	0.10346	0.001526	-0.036926	0.034332	0.11429	-0.010834	-0.049896	0.14923	0.75577	0.034943	-0.19501	0.19684	0.6218	-1.152	-1.2451	-0.068054	-0.071564	-0.19302	-0.010529	-0.24338	0.000153	-0.014191
39.67	0.006561	-0.015717	0.1297	0.011597	-0.004578	0.015717	0.021667	-0.007172	-0.027924	0.011139	0.006561	-0.000305	-0.0354	0.028839	0.27756	-0.013733	-0.011139	0.14603	0.26108	0.01709	-0.11276	0.15518	0.9642	-1.2764	-1.2596	-0.071106	0.00412	0.097809	-0.39749	-0.012665	0.003052	-0.00885
39.671	0.01709	-0.040283	0.10666	0.006256	-0.006104	0.018158	0.02533	-0.005646	-0.028992	0.009613	-0.002594	0.00473	-0.005798	-0.007935	0.016174	-0.010223	-0.021515	0.13534	-0.077667	0.12405	0.13123	0.12421	1.2285	-1.1496	-0.87097	-0.10437	0.026855	-0.10162	-0.41397	0.17059	0.002441	-0.00824
39.672	-0.002136	-0.027924	0.063477	0.002136	0.004272	0.014954	-0.003204	-0.005188	-0.01709	0.009308	-0.10147	0.005341	-0.018921	-0.018616	-0.010529	-0.005188	-0.049438	0.069427	0.29175	0.13184	0.12787	0.10605	1.0066	-0.83206	-0.65964	-0.10941	0.043335	-0.24933	-0.42923	0.30075	0.00061	-0.007935
39.673	-0.000305	-0.042877	0.050049	0.003204	0.001984	-0.008698	-0.003967	-0.005188	-0.014038	0.003357	-0.024109	0.007629	-0.037994	0.039215	0.72128	-0.007935	-0.060425	0.030518	-0.11078	0.064545	0.11551	0.11154	0.42541	-0.31693	-0.48492	-0.076447	0.068054	-0.27664	-0.16922	0.55481	-0.000458	-0.012665
39.674	0.003204	-0.081482	0.050812	-0.00351	0.00412	-0.001526	-0.010529	-0.010071	-0.012512	-0.005493	0.044556	0.004578	-0.020599	0.040894	0.12741	-0.002289	-0.044708	-0.007477	-0.86792	-0.039063	0.066833	0.06012	-0.4364	0.34347	0.032196	-0.035095	0.049591	0.18829	-0.24063	0.52567	-0.002899	-0.01358
39.675	0.010681	-0.068665	0.090942	0.011749	-0.002441	0.004578	-0.012512	-0.00824	-0.016632	-0.005951	-0.027313	0.006256	0.030518	0.012665	-0.005035	-0.008698	0.014343	-0.002289	-0.94833	-0.1561	0.025787	-0.018616	-1.1195	1.1182	0.77469	-0.033417	0.024109	0.27878	0.076599	0.52917	-0.001831	-0.00824
39.676	0.014648	-0.0383	0.079803	0.018311	0.002747	-0.001221	-0.035858	-0.009613	0.011902	-0.003357	-0.076904	0.003815	0.018005	0.073853	-0.071716	-0.000916	0.064697	-0.013885	-0.11688	-0.1445	-0.00946	-0.040588	-1.3033	1.494	0.9819	0.000153	0.024261	-0.020447	-0.0177	0.58579	-0.002136	-0.003204
39.677	0.014954	-0.035858	0.045013	-0.002289	0.002289	-0.011292	-0.044098	-0.008392	0.018463	0.012817	-0.083313	0.003204	0.000153	0.10666	0.18707	-0.005493	0.11932	-0.027161	-0.47806	-0.099182	-0.076904	-0.090637	-0.70847	0.97717	0.7019	0.025482	0.031586	0.30685	-0.12375	0.15198	-0.005035	-0.005341
39.678	0.00824	-0.061493	0.079346	-0.018005	0.005341	-0.016937	-0.041504	-0.013428	0.018158	-0.018158	-0.13825	0.006104	0.046844	0.1619	0.51407	-0.007477	0.17731	0.004883	-0.79483	0.036926	-0.17242	-0.11948	-0.05249	0.18326	0.46829	0.027161	0.000916	0.23331	0.015564	-0.14572	0.005493	-0.001373
39.679	0.009918	-0.066986	0.04715	-0.031128	0.004883	-0.030518	-0.045319	-0.00824	0.018768	-0.064697	-0.045319	0.01236	0.07431	0.21759	0.035553	-0.000458	0.13825	0.014038	-0.66757	0.058289	-0.17075	-0.075989	0.16922	-0.45303	0.4129	0.009766	0.011902	0.085602	0.3598	0.1889	0.000305	0.000763
39.68	0.017395	-0.071259	0.048523	-0.004272	0.003052	-0.002899	-0.036774	-0.009766	0.007629	-0.086975	-0.025482	0.005188	0.11551	0.31265	-0.42282	-0.013885	0.081482	0.054779	-0.10468	-0.12451	-0.072327	0.012665	0.52841	-0.71808	0.18112	-0.001678	0.011292	0.066376	0.04715	0.072784	0.000763	-0.007629
39.681	0.014648	-0.056763	0.090027	-0.010071	0.002899	-0.000916	-0.02655	-0.011749	0.016174	-0.048676	0.034637	0.004578	0.054474	0.24796	-0.44678	-0.007172	0.023193	-0.089417	0.35828	-0.21072	0.13397	0.005646	0.81131	-0.64865	0.039063	0.002747	-0.014648	-0.017548	0.005798	0.06073	0.000916	-0.013275
39.682	0.013733	-0.02533	0.15274	0.023499	-0.002747	0.022736	-0.014191	-0.010834	0.001831	-0.005798	0.043488	-0.003967	-0.0177	0.058289	-0.57968	-0.010834	0.015411	-0.048218	0.73441	-0.14404	0.23361	-0.007019	0.67947	-0.13596	0.51315	-0.002441	-0.022583	-0.28015	-0.021057	-0.1857	-0.000153	-0.016479
39.683	0.010071	0.012817	0.051117	-0.005188	-0.004883	0.042572	-0.025024	-0.001678	0.002136	0.001678	0.025482	0.006561	-0.013885	-0.056	-0.51544	-0.024261	0.00061	-0.066681	0.34042	-0.11261	0.11536	-0.014343	0.2945	0.45197	0.67658	-0.007172	-0.032196	0.057068	0.084381	-0.5571	-0.000763	-0.01297
39.684	0.011902	0.009155	-0.035553	-0.019989	0.002136	0.046082	-0.009613	-0.00351	0.003967	-0.007019	0.035706	0.006104	0.003357	-0.08606	-0.1004	-0.042572	0.032043	-0.099335	-0.54764	0.08606	-0.2356	0.009308	-0.084991	0.72418	0.56473	-0.002136	-0.036011	0.13077	0.26657	-0.57724	-0.001831	-0.015259
39.685	0.00946	0.061188	-0.005951	-0.000153	0.005035	0.0354	-0.019989	-0.001526	0.014954	0.000763	0.007935	0.007019	0.045471	-0.22186	0.021057	-0.011139	0.020294	-0.048523	-0.69275	0.30289	-0.02243	-0.10315	-0.8017	0.51163	0.27176	0.003662	-0.044403	0.016632	0.21957	-0.16525	-0.00061	-0.011749
39.686	0.008087	0.056152	0.15243	0.027313	0.009766	0.040588	-0.001221	-0.000305	0.012512	-0.006714	-0.024567	0.011902	0.011902	-0.2475	0.15243	-0.020447	0.030975	0.011292	-0.016632	0.36774	-0.1207	-0.058441	-1.459	-0.08255	0.14313	0.008392	-0.015259	-0.014954	0.00824	0.043945	-0.002594	-0.006409
39.687	-0.003815	0.030975	0.12268	0.028992	-0.002441	0.025787	-0.010529	-0.006561	0.021057	-0.002136	-0.023193	0.004578	-0.033264	-0.06897	0.16632	-0.016327	0.009766	-0.002289	-0.2449	0.3656	-0.21713	-0.01358	-1.2637	-0.23956	0.16129	0.022583	-0.000305	-0.019684	-0.14175	-0.010071	0.001526	0.001831
39.688	-0.002594	0.024567	0.015106	0.046234	-0.004272	0	-0.002441	-0.002899	0.014038	0.00885	0.019684	0.002747	-0.10208	0.015411	0.29816	-0.019989	-0.016174	-0.096436	-0.78369	0.28473	-0.26764	0.031433	-0.77164	0.41107	0.00885	0.043945	0.067902	-0.02533	-0.2829	-0.14481	-0.000458	0.000763
39.689	0.003052	0.021362	0.047455	0.070343	0.001373	0.005188	0.012054	-0.00412	0.021515	0.032501	0.010529	0.006104	-0.15442	-0.011597	0.36652	-0.010681	-0.016174	-0.10727	-0.66528	0.15991	-0.29617	0.001984	-0.29511	1.0178	-0.39688	0.039825	0.046844	-0.023804	-0.25085	-0.12711	0.001373	-0.001831
39.69	-0.005951	0.046692	0.069275	0.037537	-0.00412	0.006256	0.002899	0.005035	0.014343	0.025787	0.15564	0.001831	-0.13809	0.00885	0.13825	-0.029144	-0.080872	-0.10437	-0.40985	0.053406	-0.060883	-0.007172	-0.096436	0.83221	-0.31296	0.033875	-0.025787	-0.058289	-0.20493	-0.24872	0.001526	-0.011444
39.691	-0.013275	0.024567	0.05722	-0.020294	-0.002899	0.026703	-0.00351	0.002594	0.015411	-0.003967	0.25909	0.007477	-0.052338	0.014343	0.084839	-0.026703	-0.088501	-0.14694	0.061798	0.06012	0.67078	-0.11093	0.1059	0.69885	0.10346	0.014038	-0.032501	-0.25482	-0.076904	-0.47867	0.001984	-0.00824
39.692	-0.001831	0.033112	0.053864	-0.04837	-0.006409	0.017242	-0.004272	0.004272	0.022888	-0.028687	0.18066	0.009918	0.041962	-0.19821	-0.2887	-0.008698	-0.043793	-0.08606	0.016632	-0.019989	0.17517	-0.095825	0.29831	0.354	0.26077	0.016174	-0.07019	-0.24902	-0.024872	-0.75378	-0.001526	-0.004425
39.693	-0.006561	0.055695	0.04776	-0.016479	-0.003052	0.013885	0.032501	0.002899	0.015106	-0.024414	-0.005493	0.002441	0.080414	-0.20538	-0.32867	-0.001068	-0.011292	-0.16861	0.9964	-0.11566	-0.063629	0.034027	0.30746	0.22079	0.14664	-0.038147	-0.046082	-0.085144	0.1416	-0.81192	-0.001221	-0.012665
39.694	-0.000916	0.055389	0.018463	0.001221	0.005341	-0.005798	0.057678	0.007782	0.006714	-0.009155	-0.16342	0.001373	0.060577	-0.13321	-0.037231	-0.000763	-0.028534	-0.09552	0.55603	-0.17456	-0.061646	0.013885	0.28412	-0.10574	0.084991	-0.039063	-0.061951	0.10391	0.32867	-0.98755	-0.001526	-0.023193
39.695	-0.002594	0.064545	0.065002	0.019531	0.007324	-0.02655	0.049591	0.005035	0.007019	0.016937	-0.12695	0.005493	-0.03891	-0.14526	-0.003662	-0.007782	0.019684	-0.15549	-0.30975	-0.11871	-0.069733	-0.054016	0.36407	-0.44464	-0.009766	-0.043488	-0.062561	0.024414	0.27695	-1.2064	-0.001678	-0.024109
39.696	0.005341	0.075073	0.20889	0.013275	0.005035	-0.014038	0.039215	0.006561	0.004578	0.015259	-0.084381	0.002594	-0.049744	-0.11719	-0.077057	-0.006561	0.059357	-0.13199	-0.96786	-0.11078	-0.1178	-0.030975	0.43762	-0.46646	-0.081024	-0.020142	-0.088196	0.22903	0.31052	-0.41794	0	-0.016937
39.697	0.007629	0.073395	0.18646	-0.005646	0.010986	-0.015106	0.02243	0.003662	0.014038	0.013885	-0.11078	0.005493	-0.031891	-0.05661	0.063171	-0.006866	0.062561	-0.087585	-0.61066	-0.11841	-0.12756	-0.024414	0.36529	-0.64499	-0.16586	-0.02243	-0.090637	0.26871	0.30502	1.2398	-0.001526	-0.010986
39.698	0.005035	0.098877	0.060425	-0.003967	0.001221	-0.000458	0.016022	0.000916	0.004425	0.014496	-0.13031	0.008698	-0.051727	-0.029297	0.10101	-0.00351	0.018921	-0.089111	0.018921	-0.20508	0.024719	-0.022125	0.25574	-1.2485	-0.21713	-0.027313	-0.059509	0.13519	-0.046692	1.5974	-0.000458	-0.001526
39.699	-0.001221	0.10498	0.045013	-0.007172	0.003052	-0.020447	0.024567	0.006104	0.010529	0.031281	-0.020142	0.00946	-0.096283	-0.002441	0.77057	0.011292	-0.02655	-0.14618	0.67322	-0.043945	0.036926	-0.016022	0.10452	-0.96146	0.12573	-0.008545	-0.014343	0.049591	-0.38132	1.2474	-0.002441	-0.005798
